<?xml version="1.0" encoding="UTF-8"?><svg id="uuid-5ce80af2-a9a2-4d70-893b-d23de20aaea8" xmlns="http://www.w3.org/2000/svg" viewBox="0 0 128 128"><path d="M10.67,115.2c-2.93,0-5.44-1.04-7.53-3.13-2.09-2.09-3.13-4.6-3.13-7.53V23.47c0-2.93,1.04-5.44,3.13-7.53,2.09-2.09,4.6-3.13,7.53-3.13h99.2c1.51,0,2.78.51,3.8,1.54,1.02,1.03,1.53,2.3,1.53,3.81s-.51,2.78-1.53,3.8c-1.02,1.01-2.29,1.52-3.8,1.52H10.67v81.07h18.13c1.51,0,2.78.51,3.8,1.54,1.02,1.03,1.53,2.3,1.53,3.81s-.51,2.78-1.53,3.8c-1.02,1.01-2.29,1.52-3.8,1.52,0,0-18.13,0-18.13,0ZM58.65,101.33c2.96,0,5.48-1.04,7.56-3.11,2.08-2.07,3.12-4.59,3.12-7.55s-1.04-5.48-3.11-7.56c-2.07-2.08-4.59-3.12-7.55-3.12s-5.48,1.04-7.56,3.11c-2.08,2.07-3.12,4.59-3.12,7.55s1.04,5.48,3.11,7.56c2.07,2.08,4.59,3.12,7.55,3.12ZM122.67,115.2h-34.13c-1.51,0-2.78-.51-3.8-1.53-1.02-1.02-1.53-2.29-1.53-3.8v-59.73c0-1.51.51-2.78,1.53-3.8,1.02-1.02,2.29-1.53,3.8-1.53h34.13c1.51,0,2.78.51,3.8,1.53,1.02,1.02,1.53,2.29,1.53,3.8v59.73c0,1.51-.51,2.78-1.53,3.8-1.02,1.02-2.29,1.53-3.8,1.53ZM46.93,109.87v-5.39c-1.96-1.67-3.51-3.7-4.67-6.08-1.16-2.38-1.73-4.96-1.73-7.73s.58-5.35,1.73-7.73c1.16-2.38,2.71-4.41,4.67-6.08v-5.39c0-1.51.51-2.78,1.53-3.8,1.02-1.02,2.29-1.53,3.8-1.53h12.8c1.51,0,2.78.51,3.8,1.53s1.53,2.29,1.53,3.8v5.39c1.96,1.67,3.51,3.7,4.67,6.08,1.16,2.38,1.73,4.96,1.73,7.73s-.58,5.35-1.73,7.73c-1.16,2.38-2.71,4.41-4.67,6.08v5.39c0,1.51-.51,2.78-1.53,3.8-1.02,1.02-2.29,1.53-3.8,1.53h-12.8c-1.51,0-2.78-.51-3.8-1.53-1.02-1.02-1.53-2.29-1.53-3.8Z" fill="#3c4043"/></svg>