<?xml version="1.0" encoding="UTF-8"?><svg id="uuid-d438dfea-781d-4ea5-b207-2e2f6aea1e90" xmlns="http://www.w3.org/2000/svg" viewBox="0 0 128 128"><path d="M53.32,6.9C21.86,9.2-1.92,36.31.12,67.77c2.05,31.46,29.41,55.24,60.87,52.94,5.88-.51,11.76-1.79,17.39-4.09.77-.26,1.02-1.02.77-1.79-.26-.51-.77-1.02-1.53-.77h-.51c-5.37,2.05-10.74,3.32-16.62,3.84-29.41,2.05-55.24-20.46-57.29-50.38C1.15,37.59,23.65,11.76,53.58,9.71c29.92-2.05,55.75,20.46,57.8,50.38.26,2.05.26,4.35,0,6.39,0,.26,0,.77.26,1.02s.51.51,1.02.51h.26c.77,0,1.28-.51,1.28-1.28v-6.91c-2.3-31.2-29.41-54.99-60.87-52.94Z" fill="#3c4043"/><path d="M118.54,76.72c-4.09-3.32-9.21-5.37-14.58-5.37-.77,4.6-2.05,8.7-3.84,12.79,1.02-.26,2.05-.26,3.07-.26,3.07,0,5.63,1.02,7.67,2.81,2.81,2.3,4.6,5.88,4.6,9.72,0,6.91-5.63,12.53-12.53,12.53s-12.53-5.63-12.53-12.53c0-2.56.77-5.12,2.3-7.16,13.81-19.69,9.21-46.8-10.74-60.87-19.69-13.81-46.8-9.21-60.87,10.74-13.81,19.69-9.21,46.8,10.74,60.87,13.3,9.46,30.18,10.23,43.73,3.58-1.28-4.6-1.28-9.72,0-14.58-10.49,7.93-25.32,8.7-36.83.77-14.07-9.97-17.39-29.41-7.67-43.48,9.97-14.07,29.41-17.39,43.48-7.67,14.07,9.97,17.39,29.41,7.67,43.48-2.81,4.09-4.6,8.95-4.6,14.32,0,13.81,11.25,24.81,24.81,24.81s25.58-11.25,25.58-25.06c0-7.93-3.58-14.83-9.46-19.44Z" fill="#3c4043"/></svg>