<?xml version="1.0" encoding="UTF-8"?><svg id="uuid-f837934d-4a72-48fb-8f94-9c9cfbb7b1be" xmlns="http://www.w3.org/2000/svg" viewBox="0 0 128 128"><path d="M30.21,97.79h36.05c3.73,0,6.76,3.03,6.76,6.76h0c0,3.73-3.03,6.76-6.76,6.76H30.21c-3.73,0-6.76-3.03-6.76-6.76h0c0-3.73,3.03-6.76,6.76-6.76Z" fill="#8768e5"/><path d="M73.01,77.52h6.76c3.73,0,6.76,3.03,6.76,6.76h0c0,3.73-3.03,6.76-6.76,6.76h-6.76c-3.73,0-6.76-3.03-6.76-6.76h0c0-3.73,3.03-6.76,6.76-6.76Z" fill="#46b779"/><path d="M45.98,77.52h6.76c3.73,0,6.76,3.03,6.76,6.76h0c0,3.73-3.03,6.76-6.76,6.76h-6.76c-3.73,0-6.76-3.03-6.76-6.76h0c0-3.73,3.03-6.76,6.76-6.76Z" fill="#46b779"/><path d="M61.75,57.24h15.77c3.73,0,6.76,3.03,6.76,6.76h0c0,3.73-3.03,6.76-6.76,6.76h-15.77c-3.73,0-6.76-3.03-6.76-6.76h0c0-3.73,3.03-6.76,6.76-6.76Z" fill="#f6a249"/><path d="M97.79,57.24h0c3.73,0,6.76,3.03,6.76,6.76h0c0,3.73-3.03,6.76-6.76,6.76h0c-3.73,0-6.76-3.03-6.76-6.76h0c0-3.73,3.03-6.76,6.76-6.76Z" fill="#f6a249"/><path d="M45.98,36.96h36.05c3.73,0,6.76,3.03,6.76,6.76h0c0,3.73-3.03,6.76-6.76,6.76h-36.05c-3.73,0-6.76-3.03-6.76-6.76h0c0-3.73,3.03-6.76,6.76-6.76Z" fill="#4aa7e6"/><path d="M50.48,16.69h15.77c3.73,0,6.76,3.03,6.76,6.76h0c0,3.73-3.03,6.76-6.76,6.76h-15.77c-3.73,0-6.76-3.03-6.76-6.76h0c0-3.73,3.03-6.76,6.76-6.76Z" fill="#8768e5"/><path d="M30.21,16.69h0c3.73,0,6.76,3.03,6.76,6.76h0c0,3.73-3.03,6.76-6.76,6.76h0c-3.73,0-6.76-3.03-6.76-6.76h0c0-3.73,3.03-6.76,6.76-6.76Z" fill="#8768e5"/></svg>