<?xml version="1.0" encoding="UTF-8"?><svg id="uuid-65bdeae2-922b-4bcf-826c-f587a4601b6e" xmlns="http://www.w3.org/2000/svg" viewBox="0 0 128 128"><path d="M11.85,128c-3.26,0-6.05-1.16-8.37-3.48-2.32-2.32-3.48-5.11-3.48-8.37V23.11c0-1.33.23-2.58.68-3.77.46-1.19,1.14-2.3,2.04-3.34L12.8,3.2c.87-1.07,1.85-1.87,2.96-2.4,1.11-.53,2.33-.8,3.68-.8h89.24c1.35,0,2.57.27,3.68.8s2.09,1.33,2.96,2.4l10.07,12.8c.75,1.07,1.37,2.19,1.87,3.37.49,1.18.74,2.42.74,3.74v93.04c0,3.26-1.16,6.05-3.48,8.37-2.32,2.32-5.11,3.48-8.37,3.48H11.85ZM14.93,19.56h98.13l-6.32-7.7H21.21l-6.28,7.7ZM90.55,73.84l-11.56,11.56c-1.11,1.13-1.66,2.5-1.66,4.11s.55,2.96,1.66,4.07c1.11,1.11,2.46,1.66,4.07,1.66s2.98-.55,4.11-1.66l15.59-15.58c1.19-1.19,1.78-2.57,1.78-4.15s-.59-2.96-1.78-4.15l-15.59-15.59c-1.13-1.11-2.5-1.66-4.11-1.66s-2.96.55-4.07,1.66c-1.11,1.11-1.66,2.46-1.66,4.07s.55,2.98,1.66,4.11c0,0,11.56,11.56,11.56,11.56ZM37.57,74.31l11.56-11.56c1.11-1.13,1.66-2.5,1.66-4.11s-.55-2.96-1.66-4.07c-1.11-1.11-2.46-1.66-4.07-1.66s-2.98.55-4.11,1.66l-15.58,15.59c-1.19,1.19-1.78,2.57-1.78,4.15s.59,2.96,1.78,4.15l15.58,15.59c1.13,1.11,2.5,1.66,4.11,1.66s2.96-.55,4.07-1.66c1.11-1.11,1.66-2.46,1.66-4.07,0-1.61-.55-2.98-1.66-4.11,0,0-11.56-11.56-11.56-11.56Z" fill="#3c4043"/></svg>