<?xml version="1.0" encoding="UTF-8"?><svg id="uuid-7049da73-658c-462f-8321-f677103b5f20" xmlns="http://www.w3.org/2000/svg" viewBox="0 0 128 128"><path d="M107.79,5.61H20.21c-8.06,0-14.6,6.54-14.6,14.6v87.58c0,8.06,6.54,14.6,14.6,14.6h87.58c8.06,0,14.6-6.54,14.6-14.6V20.21c0-8.06-6.54-14.6-14.6-14.6ZM66.56,72.27c-.81,2.29-2.04,4.3-3.69,6.02-1.84,1.95-4.03,3.45-6.56,4.48-2.53,1.03-5.38,1.55-8.53,1.55-3.87,0-7.42-.91-10.67-2.73-3.25-1.82-5.83-4.34-7.74-7.55-1.91-3.21-2.87-6.8-2.87-10.78s.96-7.57,2.87-10.78c1.91-3.21,4.5-5.72,7.74-7.55,3.25-1.82,6.8-2.73,10.67-2.73,3.15,0,6.03.55,8.64,1.66,2.61,1.11,4.83,2.67,6.67,4.7l-5.24,5.12c-1.35-1.43-2.84-2.5-4.48-3.21-1.63-.71-3.54-1.07-5.72-1.07-2.44,0-4.7.58-6.79,1.75-2.08,1.16-3.74,2.8-4.96,4.9-1.22,2.1-1.83,4.5-1.83,7.21s.62,5.11,1.86,7.21c1.24,2.1,2.9,3.74,4.98,4.9s4.36,1.75,6.84,1.75c3.72,0,6.81-1.11,9.29-3.32.75-.71,1.4-1.59,1.94-2.62.54-1.03.95-2.17,1.21-3.41h-12.61v-6.48h19.76c.26,1.05.39,2.23.39,3.55,0,2.67-.4,5.14-1.21,7.43ZM98.38,77.06c-1.26,2-2.94,3.56-5.04,4.68-2.1,1.12-4.34,1.68-6.7,1.68-2.7,0-5.11-.61-7.21-1.82-2.1-1.21-3.74-2.85-4.9-4.9s-1.75-4.27-1.75-6.66.46-4.62,1.38-6.69c.92-2.07,2.28-4.4,4.08-6.97l9.35-13.27,5.69,3.91-7.88,11.07.28.34c.86-.37,1.86-.56,2.98-.56,1.95,0,3.82.53,5.6,1.6,1.78,1.07,3.23,2.55,4.34,4.46s1.66,4.04,1.66,6.39c0,2.5-.63,4.76-1.89,6.75Z" fill="#3c4043"/><path d="M86.52,63.99c-1.76,0-3.29.61-4.59,1.81-1.3,1.21-1.94,2.73-1.94,4.55s.65,3.33,1.94,4.52c1.29,1.19,2.82,1.79,4.59,1.79s3.24-.6,4.53-1.79c1.3-1.19,1.94-2.7,1.94-4.52s-.64-3.39-1.91-4.58c-1.28-1.19-2.8-1.79-4.56-1.79Z" fill="#3c4043"/></svg>